<?xml version="1.0" standalone="no"?>
<!DOCTYPE svg PUBLIC "-//W3C//DTD SVG 20010904//EN"
 "http://www.w3.org/TR/2001/REC-SVG-20010904/DTD/svg10.dtd">
<svg version="1.0" xmlns="http://www.w3.org/2000/svg"
 width="623.000000pt" height="503.000000pt" viewBox="0 0 623.000000 503.000000"
 preserveAspectRatio="xMidYMid meet">

<g transform="translate(0.000000,503.000000) scale(0.100000,-0.100000)"
fill="#000000" stroke="none">
<path d="M822 4763 c-66 -32 -113 -121 -132 -247 -14 -93 -5 -190 41 -439 53
-287 51 -316 -25 -405 -70 -85 -39 -155 79 -177 97 -17 102 -90 12 -178 -30
-29 -57 -84 -57 -116 0 -11 12 -34 27 -51 29 -35 25 -34 149 -14 48 7 74 -12
74 -54 0 -25 -45 -74 -208 -226 -44 -41 -52 -54 -52 -84 0 -29 9 -43 54 -86
97 -92 97 -122 0 -228 -100 -109 -99 -138 12 -243 66 -64 74 -75 74 -109 0
-48 -11 -69 -76 -137 -29 -31 -56 -68 -60 -83 -8 -34 14 -68 69 -103 161 -102
197 -135 197 -184 0 -31 -13 -46 -89 -107 -31 -25 -41 -40 -41 -61 0 -36 22
-55 63 -54 18 1 176 3 353 5 l320 3 68 34 c67 33 158 114 236 211 33 40 39 43
80 42 26 0 70 -12 104 -27 l58 -28 65 27 c71 29 80 28 161 -12 l52 -27 69 37
c82 45 118 47 183 13 26 -14 61 -25 78 -25 58 0 210 91 210 126 0 7 -23 29
-50 49 -81 60 -85 71 -88 290 -3 223 3 245 78 282 103 50 155 36 170 -47 11
-60 2 -441 -12 -508 -11 -51 -11 -53 18 -84 39 -42 142 -108 168 -108 12 0 44
14 71 30 66 39 98 38 165 -5 64 -42 84 -40 142 9 44 38 82 49 125 37 70 -20
195 -101 212 -137 19 -43 14 -92 -14 -119 -37 -38 -96 -34 -190 12 l-75 37
-81 -12 c-45 -6 -106 -23 -137 -38 -48 -23 -62 -25 -106 -18 -102 15 -217 9
-294 -15 -86 -27 -136 -24 -220 14 -69 32 -76 31 -153 -5 -86 -40 -153 -52
-226 -40 -32 6 -107 10 -166 10 -107 0 -109 -1 -138 -29 -27 -28 -29 -34 -29
-108 0 -43 7 -100 15 -127 8 -27 15 -56 15 -65 0 -9 -23 -41 -50 -71 -56 -62
-87 -131 -101 -230 -17 -113 -51 -135 -126 -81 -59 43 -82 87 -92 176 -13 112
-41 137 -122 110 -53 -18 -95 -17 -172 6 -44 12 -51 12 -85 -6 -20 -11 -47
-36 -60 -55 -21 -32 -23 -42 -17 -110 5 -56 2 -86 -9 -119 -23 -63 -20 -94 11
-125 35 -36 61 -40 138 -26 47 9 77 9 112 2 26 -6 91 -13 144 -16 l96 -6 59
40 c32 22 65 40 73 40 8 0 35 -13 60 -29 67 -41 85 -44 155 -31 53 10 71 9
120 -5 48 -14 62 -15 88 -4 33 14 111 105 102 120 -3 5 -23 18 -45 29 -21 11
-59 40 -84 64 -51 48 -55 72 -34 194 19 108 48 122 210 102 l107 -12 73 33
c116 54 220 44 255 -23 20 -38 17 -65 -11 -126 -30 -64 -31 -88 -8 -152 16
-46 16 -52 0 -103 -37 -117 -28 -123 174 -132 131 -6 160 -5 185 8 33 17 84
83 84 110 0 9 -30 35 -69 61 -38 24 -72 50 -77 57 -7 11 -16 41 -56 182 -10
34 -8 40 13 64 33 35 125 76 174 76 53 0 153 -42 177 -74 25 -33 18 -61 -34
-140 -45 -71 -91 -185 -83 -208 7 -17 125 -112 153 -122 9 -3 70 -9 134 -12
117 -5 117 -5 162 24 70 47 69 61 -10 150 -87 98 -134 201 -134 295 0 82 67
115 198 100 124 -15 158 -76 111 -199 -20 -53 -20 -57 -5 -110 22 -76 20 -98
-13 -148 -32 -47 -30 -64 12 -92 21 -13 72 -15 403 -12 208 2 390 5 404 5 14
1 52 0 86 -2 54 -3 65 0 97 25 46 34 77 94 77 144 0 34 -15 164 -26 220 -2 12
-14 32 -27 43 -29 28 -66 21 -120 -22 -57 -45 -104 -45 -177 2 -50 32 -61 35
-130 35 -41 0 -101 4 -132 9 -50 7 -63 5 -113 -18 -73 -33 -118 -34 -150 -1
-35 35 -32 73 10 122 51 59 54 74 44 215 -9 145 -19 172 -78 208 -49 30 -64
64 -49 116 14 51 36 82 70 100 42 22 81 10 139 -42 78 -69 94 -68 194 7 28 20
73 48 101 62 28 14 63 40 77 56 25 30 25 32 20 168 -4 105 -1 156 11 213 9 41
16 84 16 94 0 11 -27 47 -60 82 -54 56 -60 67 -60 104 0 45 24 100 66 150 33
39 66 53 97 41 41 -16 50 -57 43 -198 -8 -153 -8 -172 -4 -430 5 -229 1 -217
108 -336 65 -72 91 -75 154 -17 58 54 84 60 181 44 44 -7 85 -13 91 -13 7 -1
35 -17 63 -36 75 -52 93 -57 129 -37 52 29 162 137 162 160 0 13 -19 37 -50
63 -33 27 -54 55 -61 79 -11 37 -6 692 7 796 5 47 3 54 -24 86 -17 19 -54 47
-83 62 -49 27 -55 28 -108 19 -63 -12 -88 -4 -95 30 -3 12 -8 42 -13 67 -7 36
-16 50 -50 75 -23 16 -45 40 -49 53 -13 48 49 112 109 112 36 0 58 -12 125
-67 83 -66 110 -60 235 56 71 66 62 113 -28 144 -51 18 -73 49 -85 122 -12 76
-13 821 0 938 6 63 18 107 40 156 37 81 37 119 -2 140 -24 14 -33 13 -103 -9
-71 -22 -81 -23 -146 -12 -53 9 -75 9 -92 1 -49 -26 -48 -53 3 -115 71 -86 71
-84 68 -682 l-3 -530 -25 -27 c-21 -23 -31 -26 -63 -22 -46 6 -66 22 -84 65
-20 49 -31 695 -13 791 20 109 19 111 -125 181 -69 33 -136 60 -148 60 -12 0
-51 -18 -87 -40 -74 -46 -119 -51 -178 -21 -48 25 -110 85 -118 116 -15 61 10
79 132 94 44 5 106 19 137 31 98 37 151 107 112 150 -24 26 -43 25 -112 -6
-79 -36 -176 -41 -348 -19 -165 22 -227 14 -374 -45 -54 -22 -111 -40 -125
-40 -39 0 -93 -25 -106 -50 -8 -16 -8 -35 0 -76 10 -46 9 -59 -4 -79 -17 -26
-140 -103 -258 -161 -71 -35 -79 -37 -115 -26 -21 6 -69 37 -107 67 -79 63
-98 66 -171 30 -56 -29 -79 -27 -154 10 -42 22 -51 23 -108 12 -58 -10 -66 -9
-113 13 -50 23 -52 23 -98 7 -64 -23 -110 -21 -157 8 -54 34 -73 32 -134 -14
-87 -65 -126 -65 -249 0 -41 22 -86 39 -100 39 -47 0 -180 -101 -218 -165 -44
-76 -55 -120 -42 -175 13 -59 0 -101 -39 -119 -21 -9 -30 -9 -50 4 -34 23 -38
40 -19 89 21 55 15 69 -37 91 -139 57 -151 68 -167 173 -10 61 -48 108 -79 98
-9 -2 -37 -13 -64 -23 -90 -34 -116 23 -48 109 45 55 52 92 26 132 -21 31 -54
43 -140 50 -53 4 -89 15 -152 46 -93 45 -162 52 -221 23z m4051 -23 c-13 -23
-36 -37 -96 -60 -77 -30 -80 -30 -215 -25 -270 12 -283 12 -337 -15 -31 -15
-55 -36 -63 -53 -13 -26 -10 -35 31 -118 28 -56 47 -84 51 -74 8 22 36 18 36
-5 0 -39 91 -14 155 42 l44 39 16 -30 c17 -33 66 -74 107 -90 l26 -10 -15 -48
c-12 -40 -14 -101 -10 -372 3 -196 1 -351 -5 -390 -16 -103 -61 -184 -154
-278 -44 -46 -86 -83 -91 -83 -6 0 -14 11 -17 24 -17 69 -151 133 -254 123
-48 -5 -53 -4 -46 11 37 85 76 202 91 272 23 109 26 466 4 575 -18 91 -55 196
-94 265 l-31 55 -11 -55 c-17 -82 -31 -121 -105 -285 -89 -198 -118 -293 -105
-335 3 -11 12 -20 20 -20 18 0 26 -25 12 -39 -15 -15 -32 -14 -47 4 -22 27
-12 114 25 214 19 51 35 101 35 111 0 29 -29 114 -51 150 -20 33 -22 34 -30
14 -4 -12 -11 -200 -15 -418 -7 -421 -3 -476 37 -476 9 0 19 -7 23 -15 4 -12
21 -15 73 -13 38 1 78 -4 90 -11 33 -17 46 -46 33 -71 -13 -24 -34 -16 -27 11
8 30 -26 52 -68 45 -35 -7 -110 -69 -132 -110 -10 -18 -15 -16 -60 31 -27 28
-66 56 -87 64 -30 11 -36 17 -31 34 4 11 10 36 15 55 5 19 10 207 10 418 0
320 -2 389 -15 419 -16 38 -9 52 23 53 21 0 93 39 148 81 l52 38 43 -55 c40
-49 45 -53 57 -37 12 17 49 131 53 163 4 40 -3 70 -22 94 -17 22 -24 24 -36
15 -18 -16 -49 12 -40 35 7 19 36 21 71 5 21 -10 35 -6 111 35 94 51 175 76
245 76 25 0 112 -10 193 -21 181 -27 257 -19 335 36 59 42 68 42 45 5z m-3905
4 c20 -8 52 -29 70 -47 33 -32 34 -32 137 -33 115 -1 138 -10 133 -53 -2 -22
-8 -26 -33 -26 -27 0 -30 3 -28 28 2 23 -1 26 -17 17 -30 -16 -39 -65 -46
-253 -7 -181 -7 -182 13 -167 11 8 69 56 128 105 59 50 111 91 115 93 5 2 8
-25 8 -60 -1 -65 18 -126 50 -161 28 -32 96 -57 139 -50 47 7 47 7 -90 -92
-59 -43 -110 -81 -112 -84 -1 -3 40 -6 93 -6 120 0 162 -18 210 -89 17 -26 32
-53 32 -59 0 -15 -19 4 -34 35 -12 24 -99 88 -120 88 -6 0 7 -11 30 -25 71
-42 124 -139 124 -226 0 -39 -8 -66 -35 -118 -48 -90 -58 -100 -153 -165 l-82
-56 64 95 c39 57 72 117 82 151 30 105 0 208 -78 264 -38 28 -65 38 -143 56
l-30 7 30 13 c40 18 21 17 -39 -1 -73 -22 -75 -19 -10 23 94 61 227 162 213
162 -29 0 -99 43 -118 73 -24 37 -28 29 -6 -13 16 -30 40 -48 84 -59 23 -7 20
-11 -56 -68 -102 -77 -142 -98 -86 -47 l43 39 -40 60 c-22 32 -52 83 -67 113
l-28 54 45 40 45 40 12 -29 c12 -28 12 -28 13 16 l0 44 -27 -24 c-16 -13 -44
-39 -65 -57 l-36 -34 17 -37 c9 -20 38 -68 65 -108 26 -39 45 -76 42 -82 -4
-6 -48 -40 -99 -75 -51 -36 -105 -77 -122 -91 l-30 -26 50 24 c28 14 70 27 95
31 l45 6 -55 -18 c-30 -11 -71 -27 -91 -37 -36 -17 -36 -18 -43 -93 -8 -96 -8
-205 0 -320 6 -79 9 -91 29 -100 14 -6 27 -6 39 0 48 27 28 -8 -55 -96 l-92
-97 -41 47 c-53 62 -121 94 -177 84 -46 -9 -75 -32 -64 -50 6 -9 9 -9 15 0 4
7 15 10 24 7 14 -5 15 -11 6 -27 -15 -28 -58 -26 -71 4 -16 34 12 80 70 117
59 35 81 82 81 167 -1 53 -20 158 -34 180 -3 5 3 29 13 53 14 31 21 73 23 139
3 81 0 101 -18 138 -21 42 -21 42 -2 80 27 56 38 138 38 290 0 147 -14 265
-36 300 -16 24 -52 29 -86 11 -11 -6 -29 -31 -40 -56 -30 -67 -29 -359 2 -528
47 -261 52 -301 47 -377 -6 -91 -28 -138 -71 -149 -23 -6 -33 -3 -53 17 -23
23 -24 27 -10 47 8 12 22 24 32 25 22 5 37 -18 23 -35 -14 -17 -4 -27 17 -19
53 20 52 195 -5 506 -68 372 -59 516 36 608 50 47 86 54 152 26z m4672 -30 c0
-3 -11 -19 -25 -36 -14 -16 -35 -62 -47 -101 -23 -71 -23 -79 -23 -622 0 -504
1 -553 17 -577 22 -33 78 -52 129 -44 46 7 50 -4 12 -30 -16 -10 -53 -42 -85
-71 -52 -51 -57 -53 -70 -36 -7 10 -39 41 -71 68 l-58 50 1 585 c1 418 -2 600
-10 639 -13 56 -63 124 -102 137 -12 3 -16 10 -11 15 15 15 107 -18 138 -51
l29 -30 40 39 c23 22 55 47 71 55 30 16 65 21 65 10z m-1229 -141 c37 -22 42
-38 24 -73 -21 -40 -53 -60 -96 -60 -45 0 -77 25 -84 65 -12 69 84 110 156 68z
m-1870 -208 c58 -77 70 -82 124 -51 24 14 55 40 69 58 l25 32 11 -29 c6 -17
29 -49 52 -72 l40 -41 -30 -16 c-40 -21 -71 -87 -79 -169 -6 -65 -5 -66 21
-78 30 -14 31 -42 3 -47 -34 -7 -46 27 -47 128 0 102 -16 151 -56 177 -19 12
-24 12 -38 -2 -14 -15 -16 -64 -16 -447 0 -371 2 -435 16 -463 16 -34 65 -65
103 -65 33 0 25 -18 -11 -25 -42 -9 -87 -32 -115 -57 -21 -20 -21 -20 -37 4
-9 14 -38 35 -66 48 -48 23 -49 23 -35 49 11 22 14 116 16 458 3 484 6 464
-71 503 l-40 21 57 69 c32 38 59 70 60 70 1 0 21 -25 44 -55z m2514 -41 c19
-8 49 -14 66 -14 35 0 34 6 6 -95 -11 -41 -12 -121 -5 -469 5 -282 12 -424 19
-433 7 -8 32 -13 65 -13 39 0 54 -4 54 -14 0 -8 -12 -17 -26 -20 -14 -4 -45
-25 -69 -47 -38 -35 -43 -43 -34 -63 8 -16 5 -51 -8 -129 l-19 -106 23 -6 c39
-9 92 23 130 82 20 29 38 52 40 50 2 -3 -8 -58 -22 -123 -20 -96 -24 -134 -19
-196 6 -68 9 -78 26 -78 24 0 33 -23 18 -49 -13 -25 -20 -26 -45 -7 -14 10
-21 32 -26 85 -9 102 -44 131 -123 101 l-26 -10 1 -262 c1 -145 5 -337 8 -427
6 -163 6 -164 33 -184 19 -14 49 -21 117 -26 107 -7 133 -23 113 -66 -14 -30
-32 -29 -47 3 -14 31 -27 33 -92 16 -68 -18 -85 -31 -112 -90 -12 -24 -24 -44
-29 -44 -4 0 -18 21 -32 46 -13 26 -43 62 -66 81 -37 31 -41 39 -35 67 3 17 5
228 3 470 l-3 439 -55 -7 c-31 -3 -65 -11 -75 -17 -28 -14 -24 1 17 82 35 70
36 71 69 65 18 -4 36 -3 38 2 3 4 1 29 -5 56 -12 55 -7 63 26 48 75 -34 206
71 135 109 -17 9 -20 17 -16 44 5 30 1 38 -31 67 l-37 34 3 459 c3 443 2 461
-16 491 -28 44 -102 78 -149 69 -44 -8 -98 -61 -108 -104 -12 -54 11 -82 153
-191 89 -69 115 -138 72 -192 -26 -34 -55 -40 -76 -17 -14 15 -15 21 -4 34 9
11 16 13 24 5 31 -31 56 16 37 72 -8 22 -29 45 -64 69 l-52 37 0 -307 c1 -168
4 -321 9 -338 10 -44 40 -63 98 -63 27 0 48 -4 48 -10 0 -5 -18 -19 -39 -30
-22 -11 -53 -33 -68 -50 l-28 -30 -34 25 c-19 13 -48 29 -65 35 l-31 10 0 317
c0 175 -2 343 -5 373 l-5 55 40 3 c69 5 73 10 33 46 -47 43 -70 89 -70 142 -1
55 16 80 99 147 38 30 74 61 81 70 13 15 20 13 74 -24 32 -22 74 -47 93 -55z
m-2917 48 c71 -47 105 -62 142 -62 40 0 43 -11 19 -65 -21 -46 -21 -55 -14
-484 5 -265 11 -441 17 -448 6 -8 33 -13 64 -13 39 0 54 -4 54 -14 0 -8 -10
-16 -22 -20 -13 -3 -47 -27 -77 -53 l-54 -47 -16 23 c-19 29 -70 81 -79 81 -4
0 -6 211 -4 469 l3 469 -30 34 c-62 71 -168 71 -216 0 -48 -71 -28 -129 68
-198 79 -57 136 -114 148 -151 13 -41 -12 -100 -50 -114 -21 -9 -29 -7 -44 12
-16 20 -16 24 -3 37 12 12 18 13 30 3 8 -7 20 -10 26 -6 14 8 12 65 -3 92 -11
20 -89 83 -103 83 -3 0 -4 -149 -2 -331 l3 -331 24 -19 c16 -13 39 -19 72 -19
27 0 49 -4 49 -10 0 -5 -17 -18 -39 -29 -21 -11 -50 -34 -64 -51 l-26 -31 -38
25 c-21 14 -51 30 -68 36 l-30 10 0 338 c0 185 -2 353 -5 372 -5 34 -4 35 30
38 82 6 84 8 38 50 -64 58 -85 133 -56 198 12 25 172 163 191 164 4 0 34 -17
65 -38z m883 -38 c18 -19 48 -42 66 -49 30 -13 31 -15 23 -47 -6 -18 -10 -214
-10 -443 0 -343 2 -414 15 -431 8 -12 38 -31 67 -44 l52 -22 -35 -19 c-20 -10
-50 -34 -67 -53 -17 -20 -35 -36 -40 -36 -4 0 -23 16 -42 35 -19 20 -48 39
-65 44 -22 6 -29 13 -26 27 2 10 8 206 13 434 10 435 7 495 -30 506 -55 18
-55 15 -11 77 22 31 44 57 48 57 4 0 23 -16 42 -36z m297 -24 c34 -33 69 -60
78 -60 12 0 15 -5 10 -22 -4 -13 -12 -63 -18 -113 -11 -102 -4 -683 10 -730 6
-20 22 -36 53 -52 58 -31 65 -40 41 -47 -21 -7 -86 -73 -94 -97 -4 -10 -17 -1
-43 29 -20 23 -54 51 -75 62 l-37 19 15 53 c11 42 15 128 16 418 1 351 0 367
-20 411 -20 44 -31 51 -98 73 -16 5 -13 11 22 36 22 16 48 40 59 54 10 14 18
26 18 26 1 0 29 -27 63 -60z m-1246 -137 c21 -18 24 -53 6 -71 -19 -19 -55
-14 -72 10 -20 28 -20 43 0 62 20 21 43 20 66 -1z m2838 -3 c23 -23 24 -33 10
-61 -21 -38 -90 -11 -90 36 0 45 45 60 80 25z m-863 -5 c40 -28 48 -76 48
-290 0 -153 -4 -220 -18 -285 -36 -169 -85 -228 -182 -218 -33 4 -55 14 -74
32 -23 24 -26 35 -29 114 -4 84 -3 89 33 156 36 68 37 72 30 145 -5 61 -2 87
13 131 48 138 107 230 146 230 6 0 21 -7 33 -15z m-518 -57 c7 -19 11 -142 11
-325 0 -234 -3 -301 -14 -328 -18 -42 -30 -44 -52 -9 -23 35 -34 236 -25 470
5 147 9 185 24 207 21 32 42 27 56 -15z m-1118 -9 c13 -26 -11 -333 -26 -318
-8 9 -27 289 -21 313 8 31 31 34 47 5z m479 -30 c0 -24 -4 -30 -17 -27 -11 2
-19 14 -21 31 -3 22 1 27 17 27 17 0 21 -6 21 -31z m-1399 -190 c23 -6 53 -26
82 -58 97 -104 88 -204 -37 -395 -30 -47 -63 -100 -72 -118 l-17 -32 49 40
c27 22 82 62 121 88 123 80 162 149 164 285 l0 66 15 -39 c13 -37 12 -46 -12
-125 -24 -82 -29 -89 -101 -160 -42 -40 -95 -82 -118 -92 -74 -33 -136 -125
-121 -183 8 -34 45 -76 66 -76 26 0 36 21 16 32 -9 5 -16 13 -16 18 0 16 30
39 44 34 21 -8 35 -48 24 -67 -26 -48 66 27 109 88 l21 29 59 -45 c69 -53 128
-89 149 -89 22 0 25 -20 13 -75 -6 -30 -14 -266 -19 -580 -10 -675 -18 -729
-113 -829 -49 -51 -53 -47 -10 10 36 48 73 158 89 268 13 84 15 163 9 476 -6
358 1 569 24 671 l8 36 -66 33 c-36 18 -83 46 -104 63 l-39 30 -70 -70 -70
-70 53 -29 c70 -38 95 -76 104 -159 11 -111 0 -157 -53 -217 l-47 -53 45 39
c70 60 70 60 70 175 0 100 -2 109 -30 159 -20 34 -43 58 -65 69 l-34 16 47 53
c26 30 50 54 53 54 4 0 28 -17 54 -39 25 -21 64 -44 86 -51 35 -12 39 -17 33
-34 -4 -12 -11 -277 -14 -591 -6 -470 -10 -582 -23 -638 -34 -145 -96 -236
-195 -284 -49 -24 -71 -28 -162 -31 -58 -2 -125 1 -150 6 -45 10 -44 10 30 12
l75 3 -65 11 -65 10 90 7 c96 7 177 29 207 55 9 9 27 42 38 72 36 95 50 229
50 475 l0 229 -57 -50 c-32 -28 -80 -71 -108 -95 l-50 -44 0 -114 0 -113 48
-37 c27 -20 69 -46 93 -58 42 -21 51 -41 19 -41 -8 0 -50 -29 -93 -63 l-79
-64 -54 44 c-30 25 -78 61 -108 81 l-54 37 7 175 c3 96 9 336 12 533 l7 358
-46 44 c-26 24 -61 52 -78 61 l-32 16 -73 -73 c-56 -56 -71 -76 -63 -86 6 -7
42 -36 80 -64 l69 -51 57 51 c58 51 72 56 58 24 -5 -10 -7 -23 -6 -29 0 -6
-30 -41 -69 -78 -84 -79 -221 -226 -165 -176 22 19 84 77 138 130 53 52 97 91
97 87 0 -4 -61 -71 -136 -148 l-136 -140 23 -26 c13 -14 69 -62 124 -106 55
-44 104 -84 110 -89 6 -5 -39 -57 -113 -131 -67 -67 -122 -127 -121 -132 0
-16 118 -96 186 -127 35 -15 63 -32 63 -36 0 -4 -18 -19 -38 -34 -21 -15 -61
-47 -89 -72 -28 -25 -54 -46 -57 -46 -4 0 -35 24 -69 53 -65 55 -163 118 -212
137 l-29 11 117 117 c64 65 117 123 117 129 0 7 -56 60 -125 118 -69 59 -125
108 -125 110 0 3 55 58 122 124 l123 119 -62 59 c-34 33 -85 75 -112 94 -28
19 -49 37 -48 41 1 3 54 50 117 104 63 54 167 149 230 211 l115 113 145 -97
c89 -61 144 -104 143 -113 -1 -8 -7 -35 -13 -60 -6 -26 -9 -128 -8 -245 l3
-200 103 100 104 100 -4 110 c-2 71 -9 118 -17 131 -15 22 -110 74 -136 74 -8
0 -15 6 -15 14 0 8 -11 17 -24 20 -35 9 -96 81 -96 114 0 55 30 129 96 237 76
125 114 210 114 256 0 121 -97 218 -221 221 -15 1 -26 5 -23 10 6 9 48 4 115
-13z m1384 15 c39 -15 45 -53 45 -292 0 -174 -4 -241 -15 -278 -14 -45 -13
-51 4 -74 23 -31 133 -108 168 -116 19 -5 42 2 83 25 72 39 94 39 156 -1 63
-40 96 -40 137 0 74 72 134 74 219 7 52 -42 88 -44 143 -10 32 19 54 24 108
25 55 0 77 5 124 30 87 47 147 36 219 -38 47 -49 84 -65 119 -52 14 5 56 38
94 74 104 98 136 99 200 9 48 -66 51 -94 16 -163 -14 -27 -25 -66 -25 -85 0
-45 -15 -75 -39 -75 -9 0 -42 18 -71 40 -75 56 -96 54 -189 -18 -123 -94 -193
-95 -335 -3 -62 39 -98 39 -156 1 -71 -48 -103 -55 -160 -36 -32 11 -79 15
-137 14 -48 -1 -108 2 -133 6 -38 7 -52 4 -94 -18 -27 -14 -56 -26 -65 -26 -9
0 -45 14 -80 31 -58 28 -67 30 -106 20 -63 -16 -89 -14 -140 11 -45 22 -45 22
-96 3 -68 -24 -103 -22 -150 9 -58 39 -84 34 -161 -27 -61 -49 -106 -47 -213
7 -107 55 -137 57 -195 15 -79 -58 -136 -63 -158 -14 -28 62 -1 166 59 226 49
49 97 53 165 13 51 -30 71 -28 141 16 58 37 102 38 165 5 26 -14 61 -25 78
-25 58 0 210 91 210 126 0 7 -23 29 -50 49 -78 57 -84 74 -88 263 -6 251 3
280 99 313 58 20 78 22 104 13z m-1535 -66 c1 -44 17 -114 36 -159 15 -35 48
-59 80 -59 22 0 12 -23 -15 -36 -37 -19 -80 -65 -90 -98 -6 -17 -15 -50 -21
-74 -6 -23 -15 -40 -19 -37 -5 3 -14 35 -21 72 -14 80 -33 120 -65 135 -33 15
-31 29 5 56 35 26 65 81 74 137 13 79 18 95 27 95 5 0 9 -15 9 -32z m168 -121
c-4 -33 -52 -31 -56 2 -2 13 2 27 9 32 20 12 51 -9 47 -34z m287 -391 c0 -48
-21 -65 -62 -50 -34 12 -40 36 -18 70 13 20 23 25 48 22 30 -3 32 -5 32 -42z
m2992 -292 c23 -23 25 -31 19 -75 -11 -79 -50 -172 -146 -344 l-89 -160 20
-21 c11 -12 49 -38 85 -59 44 -26 63 -43 59 -52 -21 -57 -32 -385 -14 -452 3
-8 -15 -20 -50 -32 -57 -20 -102 -50 -164 -108 l-38 -36 -62 65 c-34 36 -85
77 -114 93 l-51 27 -31 -37 c-74 -90 -150 -289 -136 -360 5 -29 9 -33 27 -27
25 8 40 -13 27 -38 -13 -24 -38 -23 -66 4 -43 41 -26 172 39 303 33 65 151
258 178 290 25 31 90 145 90 159 0 19 -70 85 -114 108 -33 17 -37 23 -32 46 3
15 11 90 17 167 11 129 11 146 -8 217 l-19 77 30 11 c70 25 123 58 179 109 33
31 62 50 66 45 5 -5 29 -41 52 -80 39 -62 123 -153 133 -143 18 20 89 179 93
209 5 33 3 39 -18 45 -40 13 -48 34 -23 59 21 22 31 20 61 -10z m-2412 -190
c19 -8 48 -14 65 -14 35 0 36 -3 11 -78 -18 -54 -18 -79 -10 -486 6 -298 12
-432 20 -442 7 -9 31 -14 65 -14 39 0 54 -4 54 -14 0 -8 -11 -17 -24 -20 -13
-3 -47 -27 -75 -52 l-52 -47 -45 51 c-25 29 -51 52 -57 52 -9 0 -11 118 -9
480 l3 480 -28 26 c-81 77 -181 64 -229 -28 -34 -65 -7 -113 108 -196 120 -87
151 -149 108 -220 -16 -26 -26 -33 -47 -30 -37 4 -53 33 -31 55 16 15 18 15
24 0 8 -23 21 -21 35 4 20 38 -7 94 -63 134 -26 19 -51 35 -54 35 -8 0 1 -652
10 -671 10 -23 50 -39 96 -39 53 0 58 -14 12 -35 -20 -10 -52 -33 -69 -52
l-33 -34 -34 26 c-19 14 -49 30 -68 35 l-33 10 0 347 c0 192 -3 360 -7 374 -7
25 -6 26 42 32 28 3 55 9 60 12 5 3 -6 20 -26 37 -69 61 -91 141 -56 206 9 17
55 63 102 100 l85 68 58 -38 c32 -22 73 -46 92 -54z m326 41 c57 -75 71 -82
117 -54 20 12 51 37 68 57 l32 35 20 -39 c11 -21 34 -52 51 -68 l31 -30 -36
-30 c-45 -36 -61 -74 -70 -159 -7 -65 -6 -66 20 -78 30 -14 31 -42 2 -47 -35
-7 -46 25 -46 127 0 103 -15 152 -56 178 -19 12 -24 12 -38 -2 -14 -15 -16
-65 -16 -457 0 -397 2 -443 17 -469 19 -32 68 -59 108 -59 35 0 23 -17 -18
-25 -41 -9 -99 -39 -116 -59 -12 -14 -17 -12 -50 17 -20 18 -51 39 -68 46 -31
13 -32 14 -18 41 11 22 14 108 16 462 1 490 5 466 -74 507 l-43 22 34 37 c19
20 45 52 59 70 14 17 27 32 29 32 2 0 22 -25 45 -55z m1302 2 c28 -23 71 -49
95 -56 36 -12 42 -18 38 -35 -30 -109 -32 -829 -3 -927 l14 -47 -40 -13 c-52
-17 -152 -82 -160 -103 -6 -14 -15 -11 -64 24 -32 22 -82 48 -111 58 l-52 19
-3 465 -2 466 -47 44 c-49 46 -62 83 -32 95 20 8 32 -11 27 -42 -6 -28 20 -39
69 -30 18 4 36 6 41 6 20 -2 128 62 148 88 13 16 25 30 27 30 1 1 26 -18 55
-42z m1543 -22 c30 -25 61 -45 69 -45 8 0 15 -1 15 -2 0 -2 -7 -36 -15 -76
-12 -57 -16 -157 -18 -440 -1 -202 2 -382 6 -400 10 -38 49 -62 102 -62 19 0
35 -3 34 -7 0 -5 -23 -19 -52 -33 -45 -23 -87 -65 -100 -103 -2 -7 -27 10 -60
41 -31 28 -63 52 -71 52 -13 0 -13 6 -1 46 10 35 14 141 15 462 1 229 1 423 1
430 -1 7 -17 22 -36 33 -19 12 -35 25 -35 30 0 6 16 26 35 46 19 19 37 44 40
54 4 11 8 19 11 19 2 0 29 -20 60 -45z m-2365 -11 c18 -20 47 -41 62 -47 l28
-12 -1 -456 -1 -457 30 -25 c17 -14 44 -28 61 -32 16 -4 30 -10 30 -13 0 -4
-21 -20 -46 -36 -25 -16 -52 -39 -61 -52 -20 -31 -26 -30 -71 11 -21 19 -51
39 -66 45 -26 10 -28 13 -20 48 4 20 8 231 8 468 1 467 2 456 -55 468 l-30 6
41 60 c22 33 44 60 48 60 5 0 24 -16 43 -36z m373 -80 c14 -3 26 -7 26 -8 0
-1 -7 -23 -16 -49 -14 -41 -15 -98 -12 -424 3 -261 8 -387 16 -406 8 -18 28
-35 57 -48 24 -11 46 -23 49 -27 3 -5 -11 -17 -30 -27 -19 -10 -44 -35 -56
-54 -12 -20 -23 -38 -25 -40 -1 -2 -25 19 -52 47 -27 28 -61 54 -76 58 -23 6
-26 10 -20 33 20 79 25 167 25 471 0 211 -4 350 -11 374 -14 49 -59 96 -93 96
-37 0 -32 13 14 44 22 14 47 37 56 51 l16 25 53 -54 c29 -30 64 -58 79 -62z
m-1946 32 c2 -9 1 -25 -3 -34 -6 -16 -7 -16 -20 1 -15 20 -8 60 9 54 6 -2 13
-11 14 -21z m628 -121 c14 -21 15 -31 6 -51 -16 -33 -37 -40 -68 -20 -32 22
-39 41 -26 72 16 34 65 33 88 -1z m336 -60 c8 -18 8 -59 -1 -157 -6 -73 -12
-164 -12 -203 -1 -38 -5 -83 -8 -100 -8 -32 -10 -17 -32 283 -9 113 -9 159 -1
177 15 32 39 32 54 0z m484 -20 c12 -48 -18 -74 -46 -40 -10 12 -10 21 -2 40
15 32 40 32 48 0z m2335 -101 c24 -25 24 -27 27 -262 2 -211 1 -241 -15 -272
-24 -47 -56 -62 -119 -56 -130 11 -142 40 -146 328 -3 186 -1 217 14 245 22
40 26 41 129 42 79 1 87 -1 110 -25z m-4203 4 c15 -15 15 -51 0 -66 -18 -18
-56 -14 -68 7 -14 27 -13 37 6 55 18 19 45 21 62 4z m3057 -368 c7 -12 -12
-40 -26 -40 -5 0 -9 11 -9 25 0 25 23 35 35 15z m-2631 -36 c29 -28 14 -114
-19 -114 -23 0 -48 46 -41 74 5 21 31 56 41 56 2 0 11 -7 19 -16z m-268 -408
c65 -65 36 -117 -70 -124 -55 -4 -66 -1 -90 20 -24 20 -27 29 -21 56 10 46 57
82 107 82 32 0 47 -7 74 -34z m-158 -163 c-10 -2 -28 -2 -40 0 -13 2 -5 4 17
4 22 1 32 -1 23 -4z m-185 -31 c-54 -22 -63 -32 -28 -32 41 0 28 -6 -29 -14
-44 -5 -47 -4 -35 10 17 20 87 53 114 53 11 0 2 -8 -22 -17z m687 13 c0 -2
-19 -14 -41 -26 -50 -25 -194 -36 -279 -21 -49 9 -39 10 85 11 135 2 145 4
233 40 1 1 2 -1 2 -4z m2080 -134 c0 -28 16 -27 36 4 21 32 34 32 34 1 0 -14
5 -28 11 -32 8 -4 8 -9 0 -17 -6 -6 -11 -37 -11 -69 0 -44 4 -59 18 -67 16 -9
16 -11 -3 -24 -12 -9 -27 -12 -40 -7 -17 6 -20 17 -23 86 -2 43 -7 83 -11 87
-4 4 -16 -4 -25 -18 -11 -16 -23 -24 -32 -21 -8 3 -12 2 -9 -4 3 -5 -19 -25
-49 -44 -54 -34 -54 -35 -51 -78 l3 -43 46 0 c32 1 43 -2 35 -10 -5 -5 -53
-10 -105 -10 -94 0 -94 0 -69 18 20 15 25 27 25 62 0 24 5 47 10 50 6 3 10 23
9 43 -1 33 -2 34 -9 12 -7 -23 -8 -22 -11 13 -1 20 -2 42 -3 49 -1 6 5 13 13
16 9 3 11 0 5 -9 -6 -12 -5 -12 9 0 10 8 15 16 12 19 -3 3 2 14 12 24 15 17
15 18 -6 18 -29 0 -77 -25 -90 -47 -9 -15 -10 -13 -11 14 0 46 24 66 69 57 45
-9 117 -7 106 4 -3 3 0 11 6 19 10 11 20 5 55 -31 24 -24 44 -53 44 -65z m467
87 c-3 -12 -1 -30 4 -41 8 -15 7 -23 -5 -35 -15 -15 -17 -15 -32 0 -14 14 -14
19 5 57 23 44 37 54 28 19z m-2979 5 c-10 -2 -26 -2 -35 0 -10 3 -2 5 17 5 19
0 27 -2 18 -5z m-145 -10 c-18 -2 -48 -2 -65 0 -18 2 -4 4 32 4 36 0 50 -2 33
-4z m1678 -64 c-21 -17 -22 -22 -10 -30 7 -5 24 -9 36 -9 20 0 22 -5 25 -86 2
-49 -1 -89 -7 -94 -14 -12 -86 -6 -112 8 -31 17 -33 86 -3 102 17 9 18 14 7
31 -10 17 -9 22 5 33 10 7 15 23 14 39 -4 38 31 65 54 41 13 -14 13 -17 -9
-35z m513 8 c3 -12 6 -64 6 -114 0 -76 3 -93 15 -93 12 0 15 13 15 56 0 30 -5
64 -10 74 -8 15 -6 21 11 30 42 23 52 6 46 -74 -5 -51 -3 -76 6 -85 16 -17
-19 -44 -41 -32 -8 5 -23 6 -32 4 -10 -3 -27 0 -39 6 -18 10 -21 21 -21 74 0
34 -4 68 -9 76 -7 10 -3 23 10 39 12 16 17 33 13 48 -5 19 -3 23 9 18 8 -3 18
-15 21 -27z m-141 -40 c4 2 20 0 37 -3 23 -5 30 -12 30 -30 0 -13 -9 -28 -20
-34 -20 -11 -20 -11 4 -58 14 -26 34 -60 45 -77 26 -38 13 -54 -42 -54 -23 1
-60 -7 -81 -16 -39 -17 -86 -14 -86 6 0 6 -5 7 -11 3 -7 -4 -10 3 -9 17 5 54
2 59 -37 56 l-38 -2 -3 78 c-3 76 -14 99 -26 55 -9 -37 -7 -93 5 -105 8 -8 5
-14 -10 -23 -38 -20 -46 -9 -43 62 2 37 -1 75 -7 87 -9 16 -8 22 6 30 20 10
164 8 182 -3 6 -4 11 -35 11 -75 0 -37 5 -72 11 -78 8 -8 8 -17 0 -31 -15 -28
-16 -28 28 -24 23 2 42 -1 46 -8 5 -8 -2 -11 -25 -8 -20 2 -35 -2 -37 -9 -3
-8 4 -13 18 -13 35 0 99 22 99 34 -1 6 -14 36 -30 66 -25 47 -29 51 -30 28 0
-14 6 -28 13 -31 22 -8 -18 -40 -42 -32 -19 6 -21 15 -23 108 -3 99 -2 103 22
119 25 18 25 18 30 -10 3 -15 9 -26 13 -25z m-933 3 c8 -5 19 -5 25 0 6 5 24
3 42 -5 l31 -13 4 -89 c4 -90 -6 -138 -34 -160 -16 -14 -17 -4 -17 138 0 54
-4 79 -14 87 -12 10 -16 7 -21 -19 -10 -52 -7 -109 6 -109 8 0 6 -6 -4 -16
-10 -11 -25 -14 -40 -11 -22 6 -23 10 -22 95 1 109 8 125 44 102z m260 -102
c3 -45 5 -85 3 -87 -9 -14 -73 -15 -105 -2 -34 15 -38 20 -38 54 0 28 6 44 23
58 12 10 16 18 10 19 -21 0 -15 36 9 52 18 12 28 12 57 2 l36 -12 5 -84z
m1497 97 c27 -19 39 -70 22 -91 -7 -8 -29 -22 -48 -31 l-36 -15 29 -9 c21 -6
35 -4 53 9 21 15 23 23 20 75 -4 64 11 90 38 67 10 -9 19 -9 28 -2 8 7 22 6
44 -3 l31 -13 4 -89 c4 -90 -6 -138 -34 -160 -16 -14 -17 -4 -17 138 0 54 -4
79 -14 87 -12 10 -16 7 -21 -19 -10 -52 -7 -109 6 -109 8 0 6 -6 -4 -16 -11
-11 -25 -14 -41 -10 -20 5 -23 10 -20 33 5 27 4 26 -21 -9 -30 -43 -32 -44
-86 -22 l-40 16 0 74 c0 73 1 75 33 94 39 24 46 24 74 5z m-1333 -5 c30 -11
36 -50 11 -70 -21 -17 -19 -29 13 -94 l29 -56 -34 -26 c-34 -25 -34 -25 -84
-9 -27 9 -70 15 -94 13 -49 -3 -57 5 -24 23 22 11 112 8 157 -6 l23 -8 -21 54
c-12 30 -26 58 -31 64 -6 6 -2 15 12 26 26 19 19 55 -13 65 -21 6 -21 7 -3 20
22 17 26 17 59 4z m1594 -78 c2 -45 7 -82 12 -82 18 0 10 -17 -12 -27 -41 -18
-48 -7 -48 77 0 45 -5 82 -11 85 -13 9 21 36 41 32 12 -2 16 -21 18 -85z
m-2048 -317 c23 -8 53 -12 66 -9 31 8 30 -2 -2 -50 -25 -36 -29 -38 -64 -32
-21 3 -45 9 -54 12 -35 13 -13 -17 27 -37 54 -27 107 -78 107 -102 0 -23 -127
-157 -148 -157 -8 0 -31 12 -49 26 l-35 26 27 28 28 29 28 -22 c21 -15 32 -18
40 -10 18 18 1 48 -46 77 -75 48 -74 32 -6 209 12 31 22 33 81 12z m1510 7 c0
-5 -11 -19 -25 -32 l-25 -24 50 -48 c51 -51 68 -94 56 -142 -8 -34 -104 -136
-127 -136 -11 0 -41 21 -68 48 -69 66 -75 103 -30 179 45 74 126 163 150 163
10 0 19 -4 19 -8z m810 -18 c46 -39 60 -74 60 -152 0 -56 -4 -75 -22 -98 -37
-50 -102 -114 -115 -114 -18 0 -82 58 -98 91 -8 15 -18 59 -21 98 l-7 71 65
65 c38 39 73 65 86 65 11 0 34 -12 52 -26z m-3002 -14 c23 -17 42 -33 42 -37
0 -4 -12 -20 -27 -35 l-27 -28 42 -43 c23 -24 42 -52 42 -63 0 -33 -128 -144
-166 -144 -11 0 -32 12 -47 26 -27 25 -27 27 -11 45 27 30 54 34 70 10 17 -23
43 -28 45 -8 3 30 -4 44 -38 75 l-36 32 32 41 c38 47 33 61 -23 61 -20 0 -36
4 -36 10 0 17 65 88 81 88 9 0 35 -14 57 -30z m232 -129 l0 -159 -51 -32 c-32
-21 -54 -29 -60 -23 -9 9 -2 108 17 221 7 44 -3 55 -26 27 -24 -29 -54 -11
-32 21 15 22 123 104 137 104 13 0 15 -26 15 -159z m1381 118 c32 -23 59 -45
59 -49 0 -4 -22 -44 -50 -90 -27 -46 -50 -84 -50 -86 0 -2 26 -4 57 -6 68 -4
76 -17 41 -68 l-23 -34 -97 -1 c-112 -1 -109 -14 -22 121 30 46 54 88 54 94 0
18 -62 42 -91 36 -19 -4 -29 -1 -29 7 0 17 70 117 82 117 5 0 36 -19 69 -41z
m1082 12 c84 -58 84 -56 27 -151 -27 -46 -50 -84 -50 -86 0 -2 26 -4 57 -6 68
-4 76 -17 41 -68 l-23 -34 -97 -1 c-112 -1 -109 -14 -22 121 30 46 54 88 54
94 0 18 -62 42 -91 36 -19 -4 -29 -1 -29 7 0 16 70 117 82 117 5 0 28 -13 51
-29z m528 -11 c30 -23 55 -44 57 -49 1 -4 -20 -45 -48 -91 -27 -46 -50 -84
-50 -86 0 -2 26 -4 57 -6 68 -4 76 -17 41 -68 l-23 -34 -97 -1 -97 -1 21 36
c12 19 41 65 65 103 24 37 43 72 43 77 0 18 -62 42 -91 36 -17 -3 -29 -1 -29
5 0 18 71 119 84 119 7 0 37 -18 67 -40z m309 -64 c0 -95 2 -105 22 -118 l22
-14 -22 -22 c-12 -12 -22 -33 -22 -47 0 -18 -11 -31 -45 -50 -24 -15 -49 -24
-55 -20 -6 4 -9 30 -8 58 l3 52 -52 0 c-28 0 -54 3 -58 7 -12 12 175 258 196
258 17 0 19 -9 19 -104z m-3195 -196 l29 -30 -29 -30 c-36 -38 -46 -38 -74 1
l-23 31 28 29 c15 16 31 29 34 29 3 0 19 -13 35 -30z m540 0 l29 -30 -29 -30
c-36 -38 -46 -38 -74 1 l-23 31 28 29 c15 16 31 29 34 29 3 0 19 -13 35 -30z
m920 0 l29 -30 -29 -30 c-36 -38 -46 -38 -74 1 l-23 31 28 29 c15 16 31 29 34
29 3 0 19 -13 35 -30z m550 0 l29 -30 -29 -30 c-36 -38 -46 -38 -74 1 l-23 31
28 29 c15 16 31 29 34 29 3 0 19 -13 35 -30z"/>
<path d="M4244 4350 c78 -276 84 -613 15 -845 -14 -48 -17 -71 -10 -73 31 -10
134 -87 141 -106 7 -19 10 -16 29 26 20 45 22 70 29 460 4 227 5 432 1 456 -9
62 -24 73 -107 76 -43 1 -77 8 -88 17 -16 13 -17 12 -10 -11z"/>
<path d="M1111 4573 c-8 -29 -19 -1144 -12 -1220 2 -19 29 -16 40 5 11 21 19
1222 8 1240 -14 21 -26 13 -36 -25z"/>
<path d="M1234 4210 c-23 -16 -45 -37 -48 -47 -4 -9 -4 -77 0 -150 l7 -132 74
52 c41 28 88 63 105 77 l30 26 -38 60 c-22 33 -48 78 -58 102 -10 23 -22 42
-25 42 -3 -1 -25 -14 -47 -30z"/>
<path d="M1483 3943 c15 -2 39 -2 55 0 15 2 2 4 -28 4 -30 0 -43 -2 -27 -4z"/>
<path d="M1145 3123 c-38 -42 -132 -130 -207 -197 -76 -66 -138 -125 -138
-131 1 -5 32 -35 71 -65 39 -30 84 -71 101 -92 l30 -38 -111 -117 c-61 -65
-111 -121 -111 -124 0 -4 44 -44 98 -88 53 -44 110 -97 126 -117 l28 -36 -23
-26 -23 -27 28 27 c28 26 29 28 13 52 -9 14 -67 69 -128 122 l-111 97 117 117
117 117 -17 26 c-16 25 -130 128 -167 151 -10 6 -18 14 -18 18 0 9 352 342
382 362 23 15 28 13 135 -57 61 -39 118 -76 127 -82 14 -9 15 -15 5 -45 -11
-33 -25 -445 -17 -520 l3 -34 45 54 45 55 -40 -34 -40 -35 -3 160 c-2 105 3
194 13 262 21 143 22 136 -37 170 -29 16 -90 57 -136 91 -45 33 -83 60 -85 60
-1 -1 -33 -35 -72 -76z"/>
<path d="M1085 3018 l-40 -42 43 37 42 37 40 -22 c22 -13 59 -42 81 -65 l41
-41 7 -124 7 -123 6 85 c6 72 6 116 -1 152 -5 31 -145 148 -176 148 -6 0 -29
-19 -50 -42z"/>
<path d="M971 2916 l-43 -44 97 -71 c53 -40 102 -74 109 -77 13 -5 110 75 102
83 -3 3 -25 -11 -49 -31 -24 -20 -47 -36 -51 -36 -14 0 -186 144 -179 149 15
11 67 71 62 71 -3 0 -24 -20 -48 -44z"/>
<path d="M1304 2420 c0 -113 2 -159 3 -102 2 56 2 148 0 205 -1 56 -3 10 -3
-103z"/>
<path d="M1579 2553 l-34 -38 38 34 c34 33 42 41 34 41 -2 0 -19 -17 -38 -37z"/>
<path d="M940 2472 c0 -12 107 -113 188 -176 34 -27 62 -52 62 -55 0 -3 -55
-61 -122 -129 l-123 -123 45 -40 c25 -22 84 -59 132 -82 l88 -43 -32 -19 c-17
-10 -49 -34 -70 -53 l-38 -34 -74 59 c-81 63 -186 127 -186 112 0 -5 18 -18
40 -29 22 -11 78 -50 125 -85 47 -36 88 -65 92 -65 10 0 153 111 153 119 0 3
-51 34 -113 68 -175 97 -172 72 -27 218 l125 126 -46 42 c-160 147 -219 197
-219 189z"/>
<path d="M1627 2349 c-60 -51 -126 -107 -148 -123 l-39 -30 0 -127 0 -127 43
-33 c23 -18 56 -45 74 -60 l31 -27 -56 -44 -57 -44 -85 61 -85 62 -5 179 -6
179 -2 -186 -2 -185 38 -22 c20 -11 61 -39 91 -61 l54 -40 41 30 c22 16 54 40
70 53 l28 24 -61 41 c-34 23 -68 52 -76 64 -22 34 -23 229 -1 262 19 29 220
195 236 195 20 0 8 -568 -14 -645 -25 -90 -57 -146 -105 -182 -49 -38 -45 -42
10 -11 45 25 80 74 104 144 21 60 37 347 33 583 l-3 165 -108 -95z"/>
<path d="M884 1975 c-38 -35 -64 -64 -59 -65 6 0 40 29 75 65 35 36 62 65 58
65 -3 0 -37 -29 -74 -65z"/>
<path d="M1463 1513 c9 -2 23 -2 30 0 6 3 -1 5 -18 5 -16 0 -22 -2 -12 -5z"/>
<path d="M1292 3643 l-33 -53 25 -31 c14 -17 26 -37 26 -45 0 -8 5 -14 10 -14
6 0 10 4 10 10 0 5 14 25 31 45 l32 36 -21 22 c-12 12 -27 36 -34 53 l-13 31
-33 -54z"/>
<path d="M4380 2591 l0 -209 26 -31 c14 -17 31 -31 38 -31 13 0 136 217 136
239 0 21 -175 241 -192 241 -4 0 -8 -94 -8 -209z"/>
<path d="M4434 2203 c-26 -49 -57 -107 -70 -130 -13 -23 -24 -46 -24 -52 0
-17 211 -194 220 -185 6 7 17 338 11 380 0 6 -21 25 -45 42 l-45 32 -47 -87z"/>
<path d="M3861 2761 c-29 -29 -32 -88 -29 -506 l3 -380 65 -32 c36 -18 72 -32
81 -33 14 0 17 44 23 413 4 227 5 419 2 427 -2 8 -7 27 -10 42 -3 14 -18 40
-32 57 -30 36 -74 41 -103 12z"/>
<path d="M3626 1413 c-3 -3 -6 -17 -6 -30 0 -12 -3 -23 -7 -23 -5 0 -6 -27 -5
-60 4 -72 17 -77 69 -25 29 29 34 40 29 63 -4 15 -8 36 -10 47 -2 11 -9 19
-15 17 -7 -1 -20 2 -30 8 -10 5 -21 6 -25 3z"/>
<path d="M3562 1200 c0 -19 2 -27 5 -17 2 9 2 25 0 35 -3 9 -5 1 -5 -18z"/>
<path d="M2755 1320 c3 -5 14 -10 23 -10 15 0 15 2 2 10 -20 13 -33 13 -25 0z"/>
<path d="M2768 1282 c-24 -5 -25 -67 -2 -76 23 -9 26 -4 22 41 -2 30 -7 38
-20 35z"/>
<path d="M3150 1295 c0 -33 2 -36 15 -25 18 15 16 51 -2 58 -9 2 -13 -8 -13
-33z"/>
<path d="M3000 1255 c0 -37 4 -65 10 -65 6 0 10 28 10 65 0 37 -4 65 -10 65
-6 0 -10 -28 -10 -65z"/>
<path d="M2405 1320 c-4 -6 3 -10 14 -10 25 0 27 6 6 13 -8 4 -17 2 -20 -3z"/>
<path d="M2417 1283 c-25 -6 -20 -76 6 -81 14 -3 17 4 17 42 0 25 -1 45 -2 45
-2 -1 -11 -3 -21 -6z"/>
<path d="M3930 1287 l0 -51 21 21 c24 24 21 66 -6 77 -12 4 -15 -4 -15 -47z"/>
<path d="M3580 795 c0 -44 63 -115 102 -115 15 0 18 5 12 23 -15 50 -37 79
-69 93 -43 18 -45 17 -45 -1z"/>
<path d="M4400 853 c0 -52 22 -107 55 -140 47 -47 59 -43 51 14 -9 70 -64 153
-100 153 -3 0 -6 -12 -6 -27z"/>
<path d="M4926 797 c-32 -42 -32 -47 -2 -47 19 0 25 7 31 36 9 49 2 52 -29 11z"/>
<path d="M2657 788 c-41 -11 -137 -108 -137 -139 0 -40 174 -56 234 -21 40 23
76 77 76 113 0 51 -78 72 -173 47z m133 -15 c0 -5 -11 -26 -23 -48 -22 -40
-23 -40 -97 -47 -41 -3 -76 -5 -78 -3 -2 2 6 21 18 44 l20 41 60 0 c32 0 62 5
65 10 7 12 35 14 35 3z"/>
</g>
</svg>
